/* XPM */ 
static const unsigned char * enumeration_xpm[] = {
"32 48 3 1",
" 	c None",
"!	c black",
"#	c #808080",
"                                ",
"                                ",
"                                ",
"                                ",
"                                ",
"   #####  ######  #####  ###### ",
"  ####### ###### ####### ###### ",
"  ####### ###### ####### ###### ",
"  ####### ###### ####### ###### ",
"  ####### ###### ####### ###### ",
"  ####### ###### ####### ###### ",
"   #####  ######  #####  ###### ",
"                                ",
"  ####### ###### ####### ###### ",
"  ####### ###### ####### ###### ",
"  ####### ###### ####### ###### ",
"  ####### ###### ####### ###### ",
"  ####### ###### ####### ###### ",
"  ####### ###### ####### ###### ",
"                                ",
"   #####  ######  #####  ###### ",
"  ####### ###### ####### ###### ",
"  ####### ###### ####### ###### ",
"  ####### ###### ####### ###### ",
"  ####### ###### ####### ###### ",
"  ####### ###### ####### ###### ",
"   #####  ######  #####  ###### ",
"                                ",
"                                ",
"                                ",
"                                ",
"                                ",
"                                ",
"       #    #        #          ",
"       #    #     #   #   #     ",
"       #   #       #     #      ",
"     ##### ##### ###########    ",
"       #  #   #     #   #       ",
"      ##   #  #    #  #  #      ",
"      ###  #  #  ##   #   ##    ",
"     # # # # #    #########     ",
"       #    #         #         ",
"       #   # #   ###########    ",
"       #  #   #       #         ",
"       # #     #      #         ",
"                                ",
"                                ",
"                                "};