/* XPM */ 
static const unsigned char * exit_os_monitor_xpm[] = {
"32 48 3 1",
" 	c None",
"!	c black",
"#	c #808080",
"                                ",
"                                ",
"         ##          ##         ",
"         ###        ###         ",
"          ###      ###          ",
"           ###    ###           ",
"            ###  ###            ",
"             ######             ",
"  ############################  ",
" ############################## ",
" ###                        ### ",
" ###                        ### ",
" ###                        ### ",
" ###                        ### ",
" ###                        ### ",
" ###                        ### ",
" ###                        ### ",
" ###      ############      ### ",
" ###      ############      ### ",
" ###      ############      ### ",
" ###                        ### ",
" ###                        ### ",
" ###                        ### ",
" ###                        ### ",
" ###                        ### ",
" ###                        ### ",
" ###                        ### ",
" ############################## ",
"  ############################  ",
"   ##########################   ",
"                                ",
"                                ",
"                                ",
"      #  ######       #         ",
"       # #    #   #   #   #     ",
"         ######   #   #   #     ",
"         #    #   #   #   #     ",
"     ### ######   #########     ",
"       # # #   #      #         ",
"       # #  # #       #         ",
"       # # # #   #    #    #    ",
"       # ##   #  #    #    #    ",
"       # #    #  #    #    #    ",
"      # #        ###########    ",
"     #   #######           #    ",
"                                ",
"                                ",
"                                "};