/* XPM */ 
static const unsigned char * hang_up_xpm[] = {
"32 48 3 1",
" 	c None",
"!	c black",
"#	c #808080",
"                                ",
"                                ",
"                                ",
"           ################     ",
"         ####################   ",
"         ####################   ",
"        ######################  ",
"        ####              ####  ",
"        ####              ####  ",
"   ##   ####              ####  ",
"  ####  ####              ####  ",
"  ####  ####              ####  ",
"   ##   ####              ####  ",
"        ####              ####  ",
"        ####              ####  ",
"   ##   ####              ####  ",
"  ####  ####              ####  ",
"  ####  ####              ####  ",
"   ##   ####              ####  ",
"        ####              ####  ",
"        ####              ####  ",
"   ##   ######################  ",
"  ####   ####################   ",
"  ####   ####################   ",
"   ##      ################     ",
"                                ",
"                                ",
"   ##    ##    ##    ##         ",
"   ###  ####  ####  ####        ",
"   ###  ####  ####  ####        ",
"         ##    ##    ##         ",
"                                ",
"                                ",
"       #    #       #           ",
"       #    #       #  ####     ",
"       #  #####   ####    #     ",
"     ####   #       #     #     ",
"       #    #       #  ####     ",
"       # ####### ##### #        ",
"       ##           #  #        ",
"     ###    #     # #  #   #    ",
"       #  #####   # ## #   #    ",
"       #    #     # #   ####    ",
"       #    #     ###           ",
"      ## ####### #  ########    ",
"                                ",
"                                ",
"                                "};