/* XPM */ 
static const unsigned char * pause_whole_monitor_xpm[] = {
"32 48 3 1",
" 	c None",
"!	c black",
"#	c #808080",
"                                ",
"                                ",
"             ######             ",
"          ############          ",
"        ####        ####        ",
"      ###             ####      ",
"     ###                ###     ",
"    ###     ########     ###    ",
"   ###    ############    ###   ",
"   ##    ##############    ##   ",
"  ##    ################    ##  ",
"  ##   ##################   ##  ",
"  ##   ##################   ##  ",
" ##   #######  ##  #######   ## ",
" ##   #######  ##  #######   ## ",
" ##   #######  ##  #######   ## ",
" ##   #######  ##  #######   ## ",
" ##   #######  ##  #######   ## ",
" ##   #######  ##  #######   ## ",
" ##   #######  ##  #######   ## ",
" ##   #######  ##  #######   ## ",
"  ##   ##################   ##  ",
"  ##   ##################   ##  ",
"  ##    ################    ##  ",
"   ##    ##############    ##   ",
"   ###    ############    ###   ",
"    ###     ########     ###    ",
"     ###                ###     ",
"      ###              ###      ",
"        ####        ####        ",
"          ############          ",
"             ######             ",
"                                ",
"       #     ##     #   #       ",
"     ##### ##       ########    ",
"      # #  #       #            ",
"      #### #####   #  #####     ",
"        #  #  #   ##  #   #     ",
"     ##### #  #  # #  #####     ",
"        # #   #    #            ",
"       #######     # #######    ",
"       #     #     # #     #    ",
"       #######     #  #####     ",
"       #     #     #    #       ",
"       #######     #   ##       ",
"                                ",
"                                ",
"                                "};