/* XPM */ 
static const unsigned char * pause_os_monitor_xpm[] = {
"32 48 4 1",
" 	c None",
"!	c black",
"#	c #848484",
"$	c #808080",
"                                ",
"                                ",
"                                ",
"                                ",
"                                ",
"   #########################$   ",
"  ###########################$  ",
" #############################$ ",
" ###                        ##$ ",
" ###                        ##$ ",
" ###                        ##$ ",
" ###       ###    ###       ##$ ",
" ###       ###    ###       ##$ ",
" ###       ###    ###       ##$ ",
" ###       ###    ###       ##$ ",
" ###       ###    ###       ##$ ",
" ###       ###    ###       ##$ ",
" ###       ###    ###       #$$ ",
" ###       ###    ###       #$$ ",
" ###       ###    ###       #$$ ",
" ###                        #$$ ",
" ###                        #$$ ",
" ###                        ##$ ",
" ###                        ##$ ",
"  ############################  ",
"   ##########################   ",
"           ##########           ",
"           ##########           ",
"           ##########           ",
"                                ",
"                                ",
"                                ",
"                                ",
"       $     $$     $   $       ",
"     $$$$$ $$       $$$$$$$$    ",
"      $ $  $       $            ",
"      $$$$ $$$$$   $  $$$$$     ",
"        $  $  $   $$  $   $     ",
"     $$$$$ $  $  $ $  $$$$$     ",
"        $ $   $    $            ",
"       $$$$$$$     $ $$$$$$$    ",
"       $     $     $ $     $    ",
"       $$$$$$$     $  $$$$$     ",
"       $     $     $    $       ",
"       $$$$$$$     $   $$       ",
"                                ",
"                                ",
"                                "};