/* XPM */ 
static const unsigned char * process_error_xpm[] = {
"16 16 84 1",
" 	c None",
"!	c black",
"#	c #5070A8",
"$	c #8CB0DD",
"%	c #7AA6DC",
"&	c #79A5DC",
"'	c #79A3DA",
"(	c #78A1D8",
")	c #759FD5",
"*	c #749DD4",
"+	c #729CD2",
",	c #7199CF",
"-	c #6F98CE",
".	c #6E95CB",
"0	c #6B93C9",
"1	c #7999C3",
"2	c #84ABDD",
"3	c #91B8E8",
"4	c #6E8FC0",
"5	c #658ABF",
"6	c #79A3DB",
"7	c white",
"8	c #6286BC",
"9	c #78A2D9",
":	c #F9FBFC",
";	c #F8FBFC",
"<	c #F7F9FB",
"=	c #F4F7FB",
">	c #F2F7FA",
"?	c #F0F5F9",
"@	c #EDF3F7",
"A	c #EAEFF6",
"B	c #E7EBF5",
"C	c #E4EAF3",
"D	c #DEE7F2",
"E	c #5F84B9",
"F	c #FAFDFD",
"G	c #FAFCFC",
"H	c #F6FAFB",
"I	c #F5F8FB",
"J	c #F1F6FB",
"K	c #FFAEAE",
"L	c #FF3C3C",
"M	c #E9EBEA",
"N	c #E8ECF6",
"O	c #5D80B6",
"P	c #FCFDFD",
"Q	c #FBFDFD",
"R	c #F9FCFC",
"S	c #F7FBFC",
"T	c #F5F9FB",
"U	c #F3F5F2",
"V	c #FF2222",
"W	c #FF5757",
"X	c #ECF2F8",
"Y	c #5B7DB4",
"Z	c #FCFEFE",
"[	c #F9FDFD",
"]	c #F8FCFC",
"^	c #FFD0D0",
"_	c #ECE6D7",
"`	c #597BB1",
"a	c #729BD1",
"b	c #F5F0E1",
"c	c #FFBCBC",
"d	c #FEFDFB",
"e	c #5779AF",
"f	c #6E96CC",
"g	c #FCFFFF",
"h	c #FDFFFF",
"i	c #DD0000",
"j	c #5374AB",
"k	c #6D93CA",
"l	c #FEFFFF",
"m	c #FDFEFE",
"n	c #F0E5CB",
"o	c #FF8080",
"p	c #5874A3",
"q	c #6B91C8",
"r	c #FF1414",
"s	c #678DC2",
"t	c #6387BD",
"u	c #6084BA",
"v	c #FFB5B5",
"                ",
"#$%&'()*+,-.01# ",
"233333333333334 ",
"%%%%%%%%%%%%%%5 ",
"677777777777778 ",
"97:;<=>?@ABCD7E ",
"(7FG:HI=JKLMN7O ",
")7PQFRSTUVKWX7Y ",
"*7ZQPQ[]WW^V_7` ",
"a7ZZZQQbV^c^Wde ",
"f7ghZZQW^ci^VKj ",
"k77lhmnV^oic^Wp ",
"q7777dV^cooocKr ",
"#s5tuLWcooioocL ",
"     r^v^^^^vv^r",
"     LLLLLLLLLLr"};