/* XPM */ 
static const unsigned char * process_normal_xpm[] = {
"16 16 91 1",
" 	c None",
"!	c black",
"#	c #5070A8",
"$	c #8CB0DD",
"%	c #7AA6DC",
"&	c #79A5DC",
"'	c #79A3DA",
"(	c #78A1D8",
")	c #759FD5",
"*	c #749DD4",
"+	c #729CD2",
",	c #7199CF",
"-	c #6F98CE",
".	c #6E95CB",
"0	c #6B93C9",
"1	c #7999C3",
"2	c #84ABDD",
"3	c #91B8E8",
"4	c #6E8FC0",
"5	c #658ABF",
"6	c #79A3DB",
"7	c white",
"8	c #6286BC",
"9	c #78A2D9",
":	c #F9FBFC",
";	c #F8FBFC",
"<	c #F7F9FB",
"=	c #F4F7FB",
">	c #F2F7FA",
"?	c #F0F5F9",
"@	c #EDF3F7",
"A	c #EAEFF6",
"B	c #E7EBF5",
"C	c #E4EAF3",
"D	c #DEE7F2",
"E	c #5F84B9",
"F	c #FAFDFD",
"G	c #FAFCFC",
"H	c #F6FAFB",
"I	c #F5F8FB",
"J	c #F1F6FB",
"K	c #EEF4F8",
"L	c #EBF2F7",
"M	c #EAF0F7",
"N	c #E8ECF6",
"O	c #5D80B6",
"P	c #FCFDFD",
"Q	c #FBFDFD",
"R	c #F9FCFC",
"S	c #F7FBFC",
"T	c #F5F9FB",
"U	c #F4F8FB",
"V	c #F3F7FB",
"W	c #F2F5FB",
"X	c #EFF3FA",
"Y	c #ECF2F8",
"Z	c #5B7DB4",
"[	c #FCFEFE",
"]	c #F9FDFD",
"^	c #F8FCFC",
"_	c #F2F7FB",
"`	c #597BB1",
"a	c #729BD1",
"b	c #F8FDFD",
"c	c #F9FBFB",
"d	c #F7FAFB",
"e	c #5779AF",
"f	c #6E96CC",
"g	c #FCFFFF",
"h	c #FDFFFF",
"i	c #FBFEFE",
"j	c #F7FCFC",
"k	c #F6FBFB",
"l	c #5374AB",
"m	c #6D93CA",
"n	c #FEFFFF",
"o	c #FDFEFE",
"p	c #FAFEFE",
"q	c #5272A9",
"r	c #6B91C8",
"s	c #5071A8",
"t	c #678DC2",
"u	c #6387BD",
"v	c #6084BA",
"w	c #5E82B8",
"x	c #5B7DB3",
"y	c #577AB0",
"z	c #5678AD",
"{	c #5575AC",
"|	c #5374AA",
"}	c #5272A8",
"                ",
"#$%&'()*+,-.01# ",
"233333333333334 ",
"%%%%%%%%%%%%%%5 ",
"677777777777778 ",
"97:;<=>?@ABCD7E ",
"(7FG:HI=JKLMN7O ",
")7PQFRSTUVWXY7Z ",
"*7[QPQ]^<TU_W7` ",
"a7[[[QQFbcdHU7e ",
"f7gh[[iFFFFjk7l ",
"m77nho[[[[ppR7q ",
"r7777777777777s ",
"#t5uvwx`yz{|}## ",
"                ",
"                "};