/* XPM */ 
static const unsigned char * scan_xpm[] = {
"32 48 4 1",
" 	c None",
"!	c black",
"#	c #848484",
"$	c #808080",
"                                ",
"                                ",
"                                ",
"                                ",
"                                ",
"   #########################$   ",
"  ###########################$  ",
" #############################$ ",
" ###                        ##$ ",
" ###         $$             ##$ ",
" ###       $$$$$$           ##$ ",
" ###      $$    $$          ##$ ",
" ###      $      $$         ##$ ",
" ###     $$       $         ##$ ",
" ###     $$       $         ##$ ",
" ###      $       $         ##$ ",
" ###      $$     $$         ##$ ",
" ###       $$   $$          #$$ ",
" ###        $$$$$ $$        #$$ ",
" ###              $$$       #$$ ",
" ###               $$$      #$$ ",
" ###                $$$     #$$ ",
" ###                 $      ##$ ",
" ###                        ##$ ",
"  ############################  ",
"   ##########################   ",
"           ##########           ",
"           ##########           ",
"           ##########           ",
"                                ",
"                                ",
"                                ",
"                                ",
"       $           $  $   $     ",
"       $  $$$$$$   $ $$$$$$$    ",
"       $       $   $  $   $     ",
"     $$$$$     $ $$$$           ",
"       $       $   $ $$$$$$$    ",
"       $   $$$$$   $ $  $  $    ",
"       $$$     $   $$$  $  $    ",
"     $$$       $ $$$ $$$$$$$    ",
"       $       $   $ $  $  $    ",
"       $       $   $ $  $  $    ",
"       $  $$$$$$   $ $$$$$$$    ",
"      $$       $  $$ $     $    ",
"                                ",
"                                ",
"                                "};