/* XPM */ 
static const unsigned char * start_os_monitor_xpm[] = {
"32 48 3 1",
" 	c None",
"!	c black",
"#	c #E02040",
"                                ",
"                                ",
"                                ",
"                                ",
"                                ",
"   ##########################   ",
"  ############################  ",
" ############################## ",
" ###                        ### ",
" ###                        ### ",
" ###         #              ### ",
" ###         ##             ### ",
" ###         ####           ### ",
" ###         #####          ### ",
" ###         ######         ### ",
" ###         ########       ### ",
" ###         ########       ### ",
" ###         ######         ### ",
" ###         #####          ### ",
" ###         ####           ### ",
" ###         ##             ### ",
" ###         #              ### ",
" ###                        ### ",
" ###                        ### ",
"  ############################  ",
"   ##########################   ",
"           ##########           ",
"           ##########           ",
"           ##########           ",
"                                ",
"                                ",
"                                ",
"                                ",
"          #             #       ",
"           #      ###   #       ",
"       #########        #       ",
"       #       #       #####    ",
"       #       # #####  #  #    ",
"       #########   #    #  #    ",
"       #          #     #  #    ",
"       #########  # #   #  #    ",
"       ##      # #   #  #  #    ",
"      # #      # ##### #   #    ",
"      # ########       #   #    ",
"     #  #      #      #  ##     ",
"                                ",
"                                ",
"                                "};